<svg width="1023" height="785" viewBox="0 0 1023 785" fill="none" xmlns="http://www.w3.org/2000/svg">
<rect width="1023" height="785" fill="#E5E5E5"/>
<path d="M174.802 115.432C169.322 122.082 167.212 131.432 164.852 140.222C145.852 211.062 99.0321 268.042 45.7121 308.742C23.1321 325.982 -4.35794 349.102 0.582065 380.012C3.24206 396.612 14.9121 408.832 23.5821 422.352C41.7721 450.662 47.6721 489.142 39.0021 523.032C29.1421 561.592 1.58206 597.572 10.1121 636.562C15.3721 660.562 33.2321 677.642 50.4021 692.322C77.1887 715.209 104.829 736.649 133.322 756.642C152.422 770.042 172.742 783.082 195.002 784.782C214.602 786.282 233.802 778.832 252.412 771.482C268.672 765.052 285.342 758.362 298.472 745.482C307.042 737.072 313.872 726.222 323.392 719.342C345.752 703.182 374.472 713.422 400.112 720.342C460.612 736.582 525.362 730.652 582.932 703.602C671.242 662.102 738.552 574.952 824.932 528.192C862.072 508.082 902.472 495.602 936.862 469.702C956.237 454.956 972.887 436.938 986.062 416.462C1012.06 376.352 1026.12 325.212 1022.06 275.152C1018 225.092 995.252 176.852 959.522 148.592C921.272 118.342 872.962 112.692 829.442 94.5322C784.502 75.7722 744.522 43.5322 700.012 23.4022C663.996 7.15881 624.8 -0.814994 585.3 0.0657808C545.8 0.946555 506.998 10.6596 471.742 28.4922C423.302 52.9922 374.202 110.152 320.252 114.492C281.812 117.492 204.822 79.0122 174.802 115.432Z" fill="url(#paint0_linear)"/>
<path d="M729.38 700.05L723.11 602.11L722.98 601.9L716.66 604.1L687.58 688.95L641.33 656.16L715 602.75L715.07 602.54L715.49 602.39L720.24 598.94L643 555.63L624.08 576.43L627.08 595.93L715.9 597.55V599.55L625.42 597.93L622 575.79L647.9 547.33L686.65 502.13L687.34 504L695.54 495L726 500.46V499.25L728 499.31V500.82L773.36 508.94L731.07 593.55L724.9 598.02V598.52V599.08L822.7 565L811.09 656.21L728.09 603.34L725.17 601.7L774.11 680.58L729.38 700.05ZM725.38 605.71L731.23 697.09L771.28 679.71L725.38 605.71ZM644.8 656.14L686.59 685.77L713.93 606.03L644.8 656.14ZM727.12 600.48L729.21 601.65L809.56 652.85L820.36 567.98L727.12 600.48ZM720.02 593.28L722.53 597.33L722.97 597.01L725.97 502.48L696.23 497.16L688.07 506.16L720.02 593.28ZM644.6 554.22L719.44 596.22L718.14 594.09L686.56 507.82L649.37 548.69L644.6 554.22ZM728 502.83L725 595.55L729.52 592.27L770.43 510.45L728 502.83Z" fill="#535461"/>
<path d="M834.415 576.738C830.405 558.919 822.285 542.283 810.705 528.158C806.406 522.909 801.666 518.038 796.535 513.598C776.809 496.567 751.986 486.568 725.962 485.17C699.938 483.771 674.187 491.053 652.749 505.873C631.311 520.693 615.401 542.211 607.515 567.05C599.629 591.89 600.214 618.645 609.178 643.116C618.142 667.587 634.978 688.39 657.042 702.258C679.107 716.127 705.152 722.277 731.09 719.743C757.028 717.208 781.39 706.134 800.353 688.257C819.317 670.379 831.807 646.712 835.865 620.968C836.809 614.907 837.284 608.783 837.285 602.648C837.292 593.932 836.329 585.242 834.415 576.738ZM719.225 691.088C700.993 691.069 683.209 685.435 668.292 674.953C653.374 664.47 642.047 649.648 635.851 632.501C629.655 615.354 628.89 596.715 633.66 579.118C638.43 561.521 648.505 545.82 662.513 534.15C676.521 522.48 693.783 515.408 711.953 513.895C730.122 512.381 748.316 516.501 764.062 525.693C779.807 534.884 792.34 548.703 799.956 565.268C807.571 581.834 809.9 600.343 806.625 618.278C802.875 638.722 792.076 657.203 776.107 670.506C760.137 683.809 740.01 691.093 719.225 691.088V691.088Z" fill="#535461"/>
<path d="M297.525 687L291.256 595.322L291.126 595.125L284.797 597.185L255.665 676.605L209.348 645.89L283.144 595.874L283.215 595.678L283.635 595.537L288.392 592.306L211.04 551.749L192.083 571.227L195.087 589.488L284.016 590.967V592.84L193.405 591.323L190 570.618L215.927 543.976L254.703 501.677L255.394 503.428L263.606 495L294.19 500.122V498.989L296.193 499.045V500.46L341.619 508.063L299.228 587.334L293.049 591.52V591.988V592.512L391 560.598L379.373 646.012L296.253 596.502L293.329 594.966L342.34 668.842L297.525 687ZM293.519 598.655L299.378 684.228L339.486 667.953L293.519 598.655ZM212.833 645.89L254.683 673.637L282.063 598.964L212.833 645.89ZM295.272 593.767L297.365 594.863L377.831 642.809L388.647 563.333L295.272 593.767ZM288.162 587.025L290.675 590.817L291.116 590.518L294.12 501.995L264.337 496.995L256.165 505.423L288.162 587.025ZM212.663 550.456L287.611 589.787L286.309 587.793L254.683 507.005L217.43 545.287L212.663 550.456ZM296.153 502.332L293.149 589.132L297.675 586.06L338.644 509.44L296.153 502.332Z" fill="#535461"/>
<path d="M290.059 486C278.968 485.989 267.926 487.286 257.235 489.855C251.721 491.177 246.322 492.839 241.079 494.827C213.145 505.361 190.695 524.533 178.071 548.635C165.448 572.736 163.548 600.053 172.739 625.303C181.931 650.552 201.56 671.939 227.83 685.326C254.101 698.712 285.145 703.148 314.957 697.774C344.769 692.4 371.231 677.599 389.223 656.233C407.216 634.868 415.46 608.457 412.361 582.109C409.262 555.761 395.04 531.35 372.447 513.597C349.854 495.844 320.495 486.011 290.049 486H290.059ZM289.642 673.354C268.447 673.347 247.894 667.033 231.394 655.461C214.895 643.889 203.442 627.755 198.938 609.739C194.434 591.723 197.151 572.908 206.636 556.421C216.12 539.933 231.803 526.764 251.08 519.1C255.983 517.147 261.075 515.575 266.296 514.4C279.058 511.518 292.379 511.034 305.373 512.98C318.367 514.925 330.736 519.256 341.656 525.683C352.576 532.111 361.798 540.488 368.706 550.257C375.615 560.026 380.054 570.963 381.725 582.34C383.397 593.718 382.264 605.274 378.402 616.241C374.54 627.208 368.037 637.333 359.327 645.944C350.616 654.554 339.897 661.452 327.884 666.178C315.87 670.905 302.837 673.351 289.652 673.354H289.642Z" fill="#535461"/>
<path d="M429.08 537.89L386.373 495.746L373.027 509.27L415.734 551.414L429.08 537.89Z" fill="#6C63FF"/>
<path opacity="0.1" d="M429.08 537.89L386.373 495.746L373.027 509.27L415.734 551.414L429.08 537.89Z" fill="#ECCB20"/>
<path d="M396.56 475.577C396.56 475.577 421.35 462.497 430.93 454.077C436.697 449.031 442.898 444.503 449.46 440.547L480.56 421.617L545.56 416.617L548.56 427.617C548.56 427.617 553.56 443.617 503.56 457.617C453.56 471.617 428.56 493.617 428.56 493.617C428.56 493.617 396.56 504.577 396.56 475.577Z" fill="#DB8B8B"/>
<path opacity="0.1" d="M431.21 491.447C429.44 492.797 428.56 493.577 428.56 493.577C428.56 493.577 396.56 504.577 396.56 475.577C396.56 475.577 398.11 474.757 400.56 473.387C403.035 477.417 406.503 480.746 410.631 483.055C414.759 485.365 419.41 486.577 424.14 486.577H427.53L431.21 491.447Z" fill="black"/>
<path opacity="0.05" d="M547.62 433.137C544.84 439.027 535.25 448.707 503.56 457.577C462.95 468.947 438.83 485.577 431.21 491.447C429.44 492.797 428.56 493.577 428.56 493.577C428.56 493.577 396.56 504.577 396.56 475.577C396.56 475.577 398.11 474.757 400.56 473.387C407.99 469.317 423.72 460.387 430.9 454.037C436.666 448.989 442.867 444.462 449.43 440.507L480.53 421.577L492.11 420.687L545.53 416.577L548.53 427.577C548.53 427.577 549.23 429.727 547.62 433.137Z" fill="black"/>
<path d="M397.06 469.077L370.56 486.577L448.16 551.577C448.16 551.577 459.56 544.577 453.56 536.577C453.56 536.577 433.56 519.577 432.56 495.577L426.56 487.577H423.17C417.438 487.577 411.847 485.798 407.169 482.484C402.492 479.17 398.96 474.485 397.06 469.077V469.077Z" fill="#ECCB20"/>
<path opacity="0.1" d="M547.62 433.137C531.62 425.407 492.56 424.577 492.56 424.577L492.14 420.687L545.56 416.577L548.56 427.577C548.56 427.577 549.23 429.727 547.62 433.137Z" fill="black"/>
<path d="M492.56 422.577C492.56 422.577 539.56 423.577 551.56 433.577L545.56 312.577H480.56L492.56 422.577Z" fill="#ABB1D1"/>
<path opacity="0.05" d="M492.56 422.077C492.56 422.077 539.56 423.077 551.56 433.077L545.56 312.077H480.56L492.56 422.077Z" fill="black"/>
<path d="M530.32 348.537C530.32 348.537 647.97 344.537 650.37 359.747C652.77 374.957 532.72 368.547 532.72 368.547C532.72 368.547 523.12 358.937 530.32 348.537Z" fill="#535461"/>
<path opacity="0.05" d="M530.32 348.537C530.32 348.537 647.97 344.537 650.37 359.747C652.77 374.957 532.72 368.547 532.72 368.547C532.72 368.547 523.12 358.937 530.32 348.537Z" fill="black"/>
<path d="M435.08 409.367H414.27V590.247H435.08V409.367Z" fill="#ECCB20"/>
<path d="M433.52 394.367C430.6 394.141 427.696 393.75 424.82 393.197C413.54 391.037 385.1 386.507 377.45 394.197C367.85 403.797 371.05 420.607 396.66 423.007C422.27 425.407 466.29 419.007 475.1 409.397C475.1 409.357 459.17 396.337 433.52 394.367Z" fill="#535461"/>
<path d="M429.48 458.987L647.98 390.957L655.18 407.767L431.08 484.597L429.48 458.987Z" fill="#ECCB20"/>
<path d="M494.31 566.237L651.98 410.967L660.78 423.767L510.31 580.637L494.31 566.237Z" fill="#ECCB20"/>
<path opacity="0.1" d="M695.66 513.437C690.664 514.729 685.792 516.459 681.1 518.607L671.54 491.897C676.557 489.71 681.724 487.882 687 486.427L695.66 513.437Z" fill="black"/>
<path d="M722.41 591.847L711.21 598.247L633.07 379.917L629.57 370.147L647.98 359.737L652.59 374.117L722.41 591.847Z" fill="#ECCB20"/>
<path opacity="0.1" d="M652.59 374.117L633.07 379.917L629.57 370.147L647.98 359.737L652.59 374.117Z" fill="black"/>
<path d="M533.52 390.957L643.17 353.337C643.17 353.337 662.38 355.737 655.17 371.747L544.73 404.557C544.73 404.557 527.93 406.157 533.52 390.957Z" fill="#535461"/>
<path opacity="0.1" d="M409.87 599.447C409.869 605.581 409.394 611.706 408.45 617.767C398.85 617.077 388.93 616.077 379.21 615.077C381.369 603.186 381.101 590.981 378.42 579.197C387.89 577.197 397.56 575.287 407 573.557C408.913 582.054 409.875 590.737 409.87 599.447V599.447Z" fill="black"/>
<path opacity="0.1" d="M435.08 568.967V590.237H414.27V572.237C421.47 570.987 428.47 569.877 435.08 568.967Z" fill="black"/>
<path d="M300.62 599.077C300.62 599.077 468.7 555.077 482.3 571.867C495.9 588.657 510.31 611.077 467.93 619.077C425.55 627.077 297.45 605.467 297.45 605.467L300.62 599.077Z" fill="#ECCB20"/>
<path opacity="0.1" d="M383.29 524.957L361.93 544.507C358.147 539.651 353.871 535.2 349.17 531.227L369.11 510.397C374.244 514.836 378.988 519.707 383.29 524.957V524.957Z" fill="black"/>
<path d="M295.02 590.247L420.67 458.987L424.68 489.397L301.42 602.247L295.02 590.247Z" fill="#ECCB20"/>
<path opacity="0.1" d="M293.42 611.857C300.495 611.857 306.23 606.121 306.23 599.047C306.23 591.972 300.495 586.237 293.42 586.237C286.345 586.237 280.61 591.972 280.61 599.047C280.61 606.121 286.345 611.857 293.42 611.857Z" fill="black"/>
<path d="M291.81 611.857C298.885 611.857 304.62 606.121 304.62 599.047C304.62 591.972 298.885 586.237 291.81 586.237C284.735 586.237 279 591.972 279 599.047C279 606.121 284.735 611.857 291.81 611.857Z" fill="#535461"/>
<path opacity="0.1" d="M717.21 610.657C724.285 610.657 730.02 604.921 730.02 597.847C730.02 590.772 724.285 585.037 717.21 585.037C710.135 585.037 704.4 590.772 704.4 597.847C704.4 604.921 710.135 610.657 717.21 610.657Z" fill="black"/>
<path d="M718.01 612.257C725.085 612.257 730.82 606.521 730.82 599.447C730.82 592.372 725.085 586.637 718.01 586.637C710.935 586.637 705.2 592.372 705.2 599.447C705.2 606.521 710.935 612.257 718.01 612.257Z" fill="#535461"/>
<path opacity="0.1" d="M490.3 611.857C504.444 611.857 515.91 600.391 515.91 586.247C515.91 572.103 504.444 560.637 490.3 560.637C476.156 560.637 464.69 572.103 464.69 586.247C464.69 600.391 476.156 611.857 490.3 611.857Z" fill="black"/>
<path d="M491.91 611.857C506.054 611.857 517.52 600.391 517.52 586.247C517.52 572.103 506.054 560.637 491.91 560.637C477.766 560.637 466.3 572.103 466.3 586.247C466.3 600.391 477.766 611.857 491.91 611.857Z" fill="#535461"/>
<path d="M485.072 584.323L485.064 584.329C482.057 586.578 481.442 590.839 483.691 593.847L504.017 621.027C506.266 624.035 510.527 624.65 513.535 622.4L513.543 622.394C516.551 620.145 517.165 615.884 514.916 612.876L494.59 585.696C492.341 582.688 488.08 582.074 485.072 584.323Z" fill="#6C63FF"/>
<path d="M607.56 230.577L605.18 260.687C604.906 264.501 604.956 268.331 605.33 272.137C605.64 275.507 605.33 281.407 602.03 290.407C597.793 301.904 595.603 314.054 595.56 326.307V360.577L572.56 356.577C572.56 356.577 573.56 308.577 569.56 300.577C565.56 292.577 572.56 221.577 572.56 221.577L607.56 230.577Z" fill="#DB8B8B"/>
<path opacity="0.05" d="M606.38 245.497L605.18 260.687C604.91 264.498 604.963 268.325 605.34 272.127C605.65 275.497 605.34 281.397 602.04 290.407C597.803 301.904 595.613 314.054 595.57 326.307V360.577L572.57 356.577C572.57 356.577 573.57 308.577 569.57 300.577C566.74 294.907 569.42 257.637 571.23 236.367C571.98 227.617 572.57 221.577 572.57 221.577L607.57 230.577L606.38 245.497Z" fill="black"/>
<path d="M493.58 460.577L484.93 509.777C483.839 516.346 482.166 522.804 479.93 529.077C474.86 542.937 478.1 562.367 480.56 572.967C481.65 577.647 482.56 580.607 482.56 580.607L456.56 594.607L448.56 588.607V584.607L447.56 495.607C441.56 481.607 443.56 460.607 447.56 452.607C448.697 449.978 449.497 447.216 449.94 444.387C451.94 433.667 452.56 418.607 452.56 418.607C452.56 418.607 468.56 391.607 487.56 409.607C494.56 416.237 497.22 424.907 497.78 433.207C498.76 447.417 493.58 460.577 493.58 460.577Z" fill="#DB8B8B"/>
<path opacity="0.1" d="M497.78 433.177C483.91 441.417 459.78 443.747 449.94 444.357C451.94 433.637 452.56 418.577 452.56 418.577C452.56 418.577 468.56 391.577 487.56 409.577C494.56 416.207 497.22 424.877 497.78 433.177Z" fill="black"/>
<path d="M531.56 408.577C520.926 414.24 510.877 420.939 501.56 428.577C485.56 441.577 445.56 442.577 445.56 442.577V427.577C446.56 409.577 429.56 389.577 406.56 333.577C391.87 297.817 395.94 277.577 400.8 267.577C403.56 261.927 406.56 259.577 406.56 259.577L531.56 283.577L536.03 296.977L545.56 325.577C545.56 325.577 510.56 327.577 504.56 330.577C498.56 333.577 502.56 360.577 502.56 360.577C496.56 388.577 531.56 408.577 531.56 408.577Z" fill="#ABB1D1"/>
<path opacity="0.1" d="M607.56 230.577L606.38 245.497C588.98 250.497 576.56 234.577 576.56 234.577C574.745 235.063 572.962 235.661 571.22 236.367C571.97 227.617 572.56 221.577 572.56 221.577L607.56 230.577Z" fill="black"/>
<path opacity="0.1" d="M536.03 296.977C535.56 301.647 535.56 304.577 535.56 304.577C535.56 304.577 512.56 323.577 473.56 294.577C434.56 265.577 399.56 273.577 399.56 273.577C399.56 273.577 399.97 271.257 400.8 267.577C403.56 261.927 406.56 259.577 406.56 259.577L531.56 283.577L536.03 296.977Z" fill="black"/>
<path d="M621.04 191.527C618.43 211.877 617.56 237.527 617.56 237.527C594.56 255.527 576.56 232.527 576.56 232.527C554.84 238.357 544.63 257.367 539.82 273.957C537.244 282.93 535.812 292.194 535.56 301.527C535.56 301.527 529.48 306.527 518.28 307.527C507.69 308.417 492.51 305.657 473.56 291.527C434.56 262.527 399.56 270.527 399.56 270.527C399.56 270.527 406.56 230.527 422.56 218.527C438.56 206.527 450.56 191.527 470.56 145.527C490.56 99.5267 531.56 110.527 531.56 110.527C531.56 110.527 533.56 101.527 570.56 110.527C579.572 112.889 587.914 117.308 594.93 123.437C614.72 140.077 624.32 165.887 621.04 191.527Z" fill="white"/>
<path d="M583.93 133.077C583.88 134.407 583.77 135.887 583.59 137.537C581.59 155.537 579.59 153.537 557.59 157.537C543.91 160.027 536.8 148.597 533.38 139.597C532.142 136.336 531.208 132.969 530.59 129.537L578.59 121.537C578.59 121.537 584.34 119.927 583.93 133.077Z" fill="#DB8B8B"/>
<path opacity="0.05" d="M539.82 274.007C537.244 282.98 535.812 292.244 535.56 301.577C535.56 301.577 529.48 306.577 518.28 307.577C517.964 306.94 517.723 306.269 517.56 305.577C515.56 296.577 500.56 280.577 500.56 280.577C490.56 271.577 488.56 255.577 488.56 255.577L472.06 207.077L466.56 202.577C466.56 202.577 489.56 184.577 509.56 199.577C529.56 214.577 523.56 246.577 523.56 246.577L527.56 257.577C531.71 261.077 535.93 267.247 539.82 274.007Z" fill="black"/>
<path d="M469.56 201.577L491.56 254.577C491.56 254.577 493.56 270.577 503.56 279.577C503.56 279.577 518.56 295.577 520.56 304.577C522.56 313.577 550.56 337.577 550.56 337.577C550.56 337.577 576.56 361.577 578.56 370.577C578.56 370.577 602.56 377.577 599.56 391.577C599.56 391.577 617.56 373.577 599.56 356.577C581.56 339.577 557.56 304.577 557.56 304.577C557.56 304.577 543.56 267.577 530.56 256.577L526.56 245.577C526.56 245.577 532.56 213.577 512.56 198.577C492.56 183.577 469.56 201.577 469.56 201.577Z" fill="#DB8B8B"/>
<path opacity="0.1" d="M482.56 580.577L456.56 594.577L448.56 588.577V584.577C457.544 583.939 466.273 581.305 474.11 576.867C476.51 575.507 478.77 574.167 480.58 572.987C481.63 577.617 482.56 580.577 482.56 580.577Z" fill="black"/>
<path opacity="0.1" d="M512.56 159.577L526.56 214.577C526.56 214.577 483.56 221.577 474.56 214.577C465.56 207.577 448.56 205.577 448.56 205.577C448.56 205.577 466.56 153.577 476.56 147.577C486.56 141.577 512.56 159.577 512.56 159.577Z" fill="black"/>
<path d="M512.56 157.577L526.56 212.577C526.56 212.577 483.56 219.577 474.56 212.577C465.56 205.577 448.56 203.577 448.56 203.577C448.56 203.577 466.56 151.577 476.56 145.577C486.56 139.577 512.56 157.577 512.56 157.577Z" fill="white"/>
<path opacity="0.1" d="M583.93 132.077C581.129 135.943 577.567 139.195 573.463 141.634C569.358 144.072 564.798 145.645 560.063 146.256C555.328 146.866 550.519 146.502 545.93 145.185C541.341 143.868 537.07 141.626 533.38 138.597C532.142 135.336 531.208 131.969 530.59 128.537L578.59 120.537C578.59 120.537 584.34 118.927 583.93 132.077Z" fill="black"/>
<path d="M590.56 110.577C590.56 119.859 586.872 128.762 580.309 135.325C573.745 141.889 564.843 145.577 555.56 145.577C546.277 145.577 537.375 141.889 530.811 135.325C524.248 128.762 520.56 119.859 520.56 110.577C520.56 109.997 520.56 109.417 520.56 108.837C520.791 99.5541 524.7 90.7434 531.426 84.3428C538.153 77.9422 547.147 74.476 556.43 74.7067C565.713 74.9375 574.523 78.8462 580.924 85.5732C587.325 92.3001 590.791 101.294 590.56 110.577V110.577Z" fill="#DB8B8B"/>
<path opacity="0.1" d="M590.56 110.577C590.563 113.802 590.119 117.013 589.24 120.117C586.535 120.706 583.713 120.448 581.16 119.377C577.42 117.907 574.21 115.377 570.62 113.557C560.51 108.437 548.48 109.447 537.28 111.137C531.72 111.977 525.41 112.757 521.04 109.217C520.89 109.098 520.746 108.971 520.61 108.837C520.841 99.5541 524.75 90.7434 531.476 84.3428C538.203 77.9422 547.197 74.476 556.48 74.7067C565.763 74.9375 574.573 78.8462 580.974 85.5732C587.375 92.3001 590.841 101.294 590.61 110.577H590.56Z" fill="black"/>
<path d="M495.24 88.9267C497.37 95.6067 507.6 95.8167 512.85 100.737C515.58 103.297 516.85 107.077 519.85 109.357C524.02 112.537 530.04 111.837 535.35 111.077C546.04 109.557 557.52 108.647 567.16 113.257C570.58 114.887 573.65 117.167 577.22 118.497C580.79 119.827 585.22 119.987 588.12 117.627C590.44 115.737 591.29 112.627 593.39 110.547C595.02 108.907 597.29 107.987 599.15 106.547C603.23 103.467 604.99 98.4467 606.15 93.6467C608.55 83.7667 609.24 73.1167 605.15 63.7467C601.06 54.3767 591.22 46.7467 580.48 47.2367C577.19 47.3867 573.98 48.2367 570.7 48.5967C562.15 49.4667 553.7 46.5967 545.12 46.1067C542.631 45.8039 540.107 46.1483 537.79 47.1067C536.043 48.0775 534.537 49.4273 533.38 51.0567C529.452 56.2021 526.762 62.1836 525.52 68.5367C524.52 73.3267 524.47 77.6667 518.6 78.4067C511.93 79.2867 490.73 74.7967 495.24 88.9267Z" fill="#472727"/>
<path opacity="0.05" d="M427.06 218.077C427.06 218.077 453.06 225.077 461.06 243.077C469.06 261.077 490.7 264.367 490.7 264.367" fill="black"/>
<path d="M525.06 614.077H465.06V633.077H525.06V614.077Z" fill="#6C63FF"/>
<path opacity="0.1" d="M525.06 614.077H465.06V633.077H525.06V614.077Z" fill="#ECCB20"/>
<path d="M474.07 578.817C479.44 575.817 484.15 572.817 484.56 571.577C484.56 571.577 498.11 585.877 510.18 590.317C514.239 591.816 518.124 593.747 521.77 596.077C526.55 599.077 533.37 602.607 539.56 602.607C539.56 602.607 553.56 614.607 526.56 616.607C499.56 618.607 436.56 611.607 436.56 611.607L440.56 586.607C452.247 587.292 463.884 584.587 474.07 578.817Z" fill="#535461"/>
<defs>
<linearGradient id="paint0_linear" x1="888.5" y1="164.5" x2="1.86302e-05" y2="728.5" gradientUnits="userSpaceOnUse">
<stop stop-color="#6C6771"/>
<stop offset="1" stop-color="#ECCB20"/>
</linearGradient>
</defs>
</svg>
