<svg width="1023" height="785" viewBox="0 0 1023 785" fill="none" xmlns="http://www.w3.org/2000/svg">
<g id="man-on-bike">
<path id="background" d="M174.802 115.432C169.322 122.082 167.212 131.432 164.852 140.222C145.852 211.062 99.0321 268.042 45.7121 308.742C23.1321 325.982 -4.35794 349.102 0.582065 380.012C3.24206 396.612 14.9121 408.832 23.5821 422.352C41.7721 450.662 47.6721 489.142 39.0021 523.032C29.1421 561.592 1.58206 597.572 10.1121 636.562C15.3721 660.562 33.2321 677.642 50.4021 692.322C77.1887 715.209 104.829 736.649 133.322 756.642C152.422 770.042 172.742 783.082 195.002 784.782C214.602 786.282 233.802 778.832 252.412 771.482C268.672 765.052 285.342 758.362 298.472 745.482C307.042 737.072 313.872 726.222 323.392 719.342C345.752 703.182 374.472 713.422 400.112 720.342C460.612 736.582 525.362 730.652 582.932 703.602C671.242 662.102 738.552 574.952 824.932 528.192C862.072 508.082 902.472 495.602 936.862 469.702C956.237 454.956 972.887 436.938 986.062 416.462C1012.06 376.352 1026.12 325.212 1022.06 275.152C1018 225.092 995.252 176.852 959.522 148.592C921.272 118.342 872.962 112.692 829.442 94.5322C784.502 75.7722 744.522 43.5322 700.012 23.4022C663.996 7.15881 624.8 -0.814994 585.3 0.0657808C545.8 0.946555 506.998 10.6596 471.742 28.4922C423.302 52.9922 374.202 110.152 320.252 114.492C281.812 117.492 204.822 79.0122 174.802 115.432Z" fill="url(#paint0_linear)"/>
<g id="man">
<path id="back-wheel" d="M672.38 719.05L666.11 621.11L665.98 620.9L659.66 623.1L630.58 707.95L584.33 675.16L658 621.75L658.07 621.54L658.49 621.39L663.24 617.94L586 574.63L567.08 595.43L570.08 614.93L658.9 616.55V618.55L568.42 616.93L565 594.79L590.9 566.33L629.65 521.13L630.34 523L638.54 514L669 519.46V518.25L671 518.31V519.82L716.36 527.94L674.07 612.55L667.9 617.02V617.52V618.08L765.7 584L754.09 675.21L671.09 622.34L668.17 620.7L717.11 699.58L672.38 719.05ZM668.38 624.71L674.23 716.09L714.28 698.71L668.38 624.71ZM587.8 675.14L629.59 704.77L656.93 625.03L587.8 675.14ZM670.12 619.48L672.21 620.65L752.56 671.85L763.36 586.98L670.12 619.48ZM663.02 612.28L665.53 616.33L665.97 616.01L668.97 521.48L639.23 516.16L631.07 525.16L663.02 612.28ZM587.6 573.22L662.44 615.22L661.14 613.09L629.56 526.82L592.37 567.69L587.6 573.22ZM671 521.83L668 614.55L672.52 611.27L713.43 529.45L671 521.83Z" fill="#535461"/>
<path id="back-tire" d="M777.415 595.738C773.405 577.919 765.285 561.283 753.705 547.158C749.406 541.909 744.666 537.038 739.535 532.598C719.809 515.567 694.986 505.568 668.962 504.17C642.938 502.771 617.187 510.053 595.749 524.873C574.311 539.693 558.401 561.211 550.515 586.05C542.629 610.89 543.214 637.645 552.178 662.116C561.142 686.587 577.978 707.39 600.042 721.258C622.107 735.127 648.152 741.277 674.09 738.743C700.028 736.208 724.39 725.134 743.353 707.257C762.317 689.379 774.807 665.712 778.865 639.968C779.809 633.907 780.284 627.783 780.285 621.648C780.292 612.932 779.329 604.242 777.415 595.738ZM662.225 710.088C643.993 710.069 626.209 704.435 611.292 693.953C596.374 683.47 585.047 668.648 578.851 651.501C572.655 634.354 571.89 615.715 576.66 598.118C581.43 580.521 591.505 564.82 605.513 553.15C619.521 541.48 636.783 534.408 654.953 532.895C673.122 531.381 691.316 535.501 707.062 544.693C722.807 553.884 735.34 567.703 742.956 584.268C750.571 600.834 752.9 619.343 749.625 637.278C745.875 657.722 735.076 676.203 719.107 689.506C703.137 702.809 683.01 710.093 662.225 710.088V710.088Z" fill="#535461"/>
<path id="front-wheel" d="M240.525 706L234.256 614.322L234.126 614.125L227.797 616.185L198.665 695.605L152.348 664.89L226.144 614.874L226.215 614.678L226.635 614.537L231.392 611.306L154.04 570.749L135.083 590.227L138.087 608.488L227.016 609.967V611.84L136.405 610.323L133 589.618L158.927 562.976L197.703 520.677L198.394 522.428L206.606 514L237.19 519.122V517.989L239.193 518.045V519.46L284.619 527.063L242.228 606.334L236.049 610.52V610.988V611.512L334 579.598L322.373 665.012L239.253 615.502L236.329 613.966L285.34 687.842L240.525 706ZM236.519 617.655L242.378 703.228L282.486 686.953L236.519 617.655ZM155.833 664.89L197.683 692.637L225.063 617.964L155.833 664.89ZM238.272 612.767L240.365 613.863L320.831 661.809L331.647 582.333L238.272 612.767ZM231.162 606.025L233.675 609.817L234.116 609.518L237.12 520.995L207.337 515.995L199.165 524.423L231.162 606.025ZM155.663 569.456L230.611 608.787L229.309 606.793L197.683 526.005L160.43 564.287L155.663 569.456ZM239.153 521.332L236.149 608.132L240.675 605.06L281.644 528.44L239.153 521.332Z" fill="#535461"/>
<path id="front-tire" d="M233.059 505C221.968 504.989 210.926 506.286 200.235 508.855C194.721 510.177 189.322 511.839 184.079 513.827C156.145 524.361 133.695 543.533 121.071 567.635C108.448 591.736 106.548 619.053 115.739 644.303C124.931 669.552 144.56 690.939 170.83 704.326C197.101 717.712 228.145 722.148 257.957 716.774C287.769 711.4 314.231 696.599 332.223 675.233C350.216 653.868 358.46 627.457 355.361 601.109C352.262 574.761 338.04 550.35 315.447 532.597C292.854 514.844 263.495 505.011 233.049 505H233.059ZM232.642 692.354C211.447 692.347 190.894 686.033 174.394 674.461C157.895 662.889 146.442 646.755 141.938 628.739C137.434 610.723 140.151 591.908 149.636 575.421C159.12 558.933 174.803 545.764 194.08 538.1C198.983 536.147 204.075 534.575 209.296 533.4C222.058 530.518 235.379 530.034 248.373 531.98C261.367 533.925 273.736 538.256 284.656 544.683C295.576 551.111 304.798 559.488 311.706 569.257C318.615 579.026 323.054 589.963 324.725 601.34C326.397 612.718 325.264 624.274 321.402 635.241C317.54 646.208 311.037 656.333 302.327 664.944C293.616 673.554 282.897 680.452 270.884 685.178C258.87 689.905 245.837 692.351 232.652 692.354H232.642Z" fill="#535461"/>
<path id="Vector" d="M372.08 556.89L329.373 514.746L316.027 528.27L358.734 570.414L372.08 556.89Z" fill="#6C63FF"/>
<path id="Vector_2" opacity="0.1" d="M372.08 556.89L329.373 514.746L316.027 528.27L358.734 570.414L372.08 556.89Z" fill="#ECCB20"/>
<path id="Vector_3" d="M339.56 494.577C339.56 494.577 364.35 481.497 373.93 473.077C379.697 468.031 385.898 463.503 392.46 459.547L423.56 440.617L488.56 435.617L491.56 446.617C491.56 446.617 496.56 462.617 446.56 476.617C396.56 490.617 371.56 512.617 371.56 512.617C371.56 512.617 339.56 523.577 339.56 494.577Z" fill="#DB8B8B"/>
<path id="Vector_4" opacity="0.1" d="M374.21 510.447C372.44 511.797 371.56 512.577 371.56 512.577C371.56 512.577 339.56 523.577 339.56 494.577C339.56 494.577 341.11 493.757 343.56 492.387C346.035 496.417 349.503 499.746 353.631 502.055C357.759 504.365 362.41 505.577 367.14 505.577H370.53L374.21 510.447Z" fill="black"/>
<path id="Vector_5" opacity="0.05" d="M490.62 452.137C487.84 458.027 478.25 467.707 446.56 476.577C405.95 487.947 381.83 504.577 374.21 510.447C372.44 511.797 371.56 512.577 371.56 512.577C371.56 512.577 339.56 523.577 339.56 494.577C339.56 494.577 341.11 493.757 343.56 492.387C350.99 488.317 366.72 479.387 373.9 473.037C379.666 467.989 385.867 463.462 392.43 459.507L423.53 440.577L435.11 439.687L488.53 435.577L491.53 446.577C491.53 446.577 492.23 448.727 490.62 452.137Z" fill="black"/>
<path id="Vector_6" d="M340.06 488.077L313.56 505.577L391.16 570.577C391.16 570.577 402.56 563.577 396.56 555.577C396.56 555.577 376.56 538.577 375.56 514.577L369.56 506.577H366.17C360.438 506.577 354.847 504.798 350.169 501.484C345.492 498.17 341.96 493.485 340.06 488.077V488.077Z" fill="#ECCB20"/>
<path id="Vector_7" opacity="0.1" d="M490.62 452.137C474.62 444.407 435.56 443.577 435.56 443.577L435.14 439.687L488.56 435.577L491.56 446.577C491.56 446.577 492.23 448.727 490.62 452.137Z" fill="black"/>
<path id="Vector_8" d="M435.56 441.577C435.56 441.577 482.56 442.577 494.56 452.577L488.56 331.577H423.56L435.56 441.577Z" fill="#ABB1D1"/>
<path id="Vector_9" opacity="0.05" d="M435.56 441.077C435.56 441.077 482.56 442.077 494.56 452.077L488.56 331.077H423.56L435.56 441.077Z" fill="black"/>
<path id="Vector_10" d="M473.32 367.537C473.32 367.537 590.97 363.537 593.37 378.747C595.77 393.957 475.72 387.547 475.72 387.547C475.72 387.547 466.12 377.937 473.32 367.537Z" fill="#535461"/>
<path id="Vector_11" opacity="0.05" d="M473.32 367.537C473.32 367.537 590.97 363.537 593.37 378.747C595.77 393.957 475.72 387.547 475.72 387.547C475.72 387.547 466.12 377.937 473.32 367.537Z" fill="black"/>
<path id="Vector_12" d="M378.08 428.367H357.27V609.247H378.08V428.367Z" fill="#ECCB20"/>
<path id="Vector_13" d="M376.52 413.367C373.6 413.141 370.696 412.75 367.82 412.197C356.54 410.037 328.1 405.507 320.45 413.197C310.85 422.797 314.05 439.607 339.66 442.007C365.27 444.407 409.29 438.007 418.1 428.397C418.1 428.357 402.17 415.337 376.52 413.367Z" fill="#535461"/>
<path id="Vector_14" d="M372.48 477.987L590.98 409.957L598.18 426.767L374.08 503.597L372.48 477.987Z" fill="#ECCB20"/>
<path id="Vector_15" d="M437.31 585.237L594.98 429.967L603.78 442.767L453.31 599.637L437.31 585.237Z" fill="#ECCB20"/>
<path id="Vector_16" opacity="0.1" d="M638.66 532.437C633.664 533.729 628.792 535.459 624.1 537.607L614.54 510.897C619.557 508.71 624.724 506.882 630 505.427L638.66 532.437Z" fill="black"/>
<path id="Vector_17" d="M665.41 610.847L654.21 617.247L576.07 398.917L572.57 389.147L590.98 378.737L595.59 393.117L665.41 610.847Z" fill="#ECCB20"/>
<path id="Vector_18" opacity="0.1" d="M595.59 393.117L576.07 398.917L572.57 389.147L590.98 378.737L595.59 393.117Z" fill="black"/>
<path id="Vector_19" d="M476.52 409.957L586.17 372.337C586.17 372.337 605.38 374.737 598.17 390.747L487.73 423.557C487.73 423.557 470.93 425.157 476.52 409.957Z" fill="#535461"/>
<path id="Vector_20" opacity="0.1" d="M352.87 618.447C352.869 624.581 352.394 630.706 351.45 636.767C341.85 636.077 331.93 635.077 322.21 634.077C324.369 622.186 324.101 609.981 321.42 598.197C330.89 596.197 340.56 594.287 350 592.557C351.913 601.054 352.875 609.737 352.87 618.447V618.447Z" fill="black"/>
<path id="Vector_21" opacity="0.1" d="M378.08 587.967V609.237H357.27V591.237C364.47 589.987 371.47 588.877 378.08 587.967Z" fill="black"/>
<path id="Vector_22" d="M243.62 618.077C243.62 618.077 411.7 574.077 425.3 590.867C438.9 607.657 453.31 630.077 410.93 638.077C368.55 646.077 240.45 624.467 240.45 624.467L243.62 618.077Z" fill="#ECCB20"/>
<path id="Vector_23" opacity="0.1" d="M326.29 543.957L304.93 563.507C301.147 558.651 296.871 554.2 292.17 550.227L312.11 529.397C317.244 533.836 321.988 538.707 326.29 543.957V543.957Z" fill="black"/>
<path id="Vector_24" d="M238.02 609.247L363.67 477.987L367.68 508.397L244.42 621.247L238.02 609.247Z" fill="#ECCB20"/>
<path id="Vector_25" opacity="0.1" d="M236.42 630.857C243.495 630.857 249.23 625.121 249.23 618.047C249.23 610.972 243.495 605.237 236.42 605.237C229.345 605.237 223.61 610.972 223.61 618.047C223.61 625.121 229.345 630.857 236.42 630.857Z" fill="black"/>
<path id="Vector_26" d="M234.81 630.857C241.885 630.857 247.62 625.121 247.62 618.047C247.62 610.972 241.885 605.237 234.81 605.237C227.735 605.237 222 610.972 222 618.047C222 625.121 227.735 630.857 234.81 630.857Z" fill="#535461"/>
<path id="Vector_27" opacity="0.1" d="M660.21 629.657C667.285 629.657 673.02 623.922 673.02 616.847C673.02 609.772 667.285 604.037 660.21 604.037C653.135 604.037 647.4 609.772 647.4 616.847C647.4 623.922 653.135 629.657 660.21 629.657Z" fill="black"/>
<path id="Vector_28" d="M661.01 631.257C668.085 631.257 673.82 625.521 673.82 618.447C673.82 611.372 668.085 605.637 661.01 605.637C653.935 605.637 648.2 611.372 648.2 618.447C648.2 625.521 653.935 631.257 661.01 631.257Z" fill="#535461"/>
<path id="Vector_29" opacity="0.1" d="M433.3 630.857C447.444 630.857 458.91 619.391 458.91 605.247C458.91 591.103 447.444 579.637 433.3 579.637C419.156 579.637 407.69 591.103 407.69 605.247C407.69 619.391 419.156 630.857 433.3 630.857Z" fill="black"/>
<path id="Vector_30" d="M434.91 630.857C449.054 630.857 460.52 619.391 460.52 605.247C460.52 591.103 449.054 579.637 434.91 579.637C420.766 579.637 409.3 591.103 409.3 605.247C409.3 619.391 420.766 630.857 434.91 630.857Z" fill="#535461"/>
<path id="Vector_31" d="M428.072 603.323L428.064 603.329C425.057 605.578 424.442 609.839 426.691 612.847L447.017 640.027C449.266 643.035 453.527 643.65 456.535 641.4L456.543 641.394C459.551 639.145 460.165 634.884 457.916 631.876L437.59 604.696C435.341 601.688 431.08 601.074 428.072 603.323Z" fill="#6C63FF"/>
<path id="Vector_32" d="M550.56 249.577L548.18 279.687C547.906 283.501 547.956 287.331 548.33 291.137C548.64 294.507 548.33 300.407 545.03 309.407C540.793 320.904 538.603 333.054 538.56 345.307V379.577L515.56 375.577C515.56 375.577 516.56 327.577 512.56 319.577C508.56 311.577 515.56 240.577 515.56 240.577L550.56 249.577Z" fill="#DB8B8B"/>
<path id="Vector_33" opacity="0.05" d="M549.38 264.497L548.18 279.687C547.91 283.498 547.963 287.325 548.34 291.127C548.65 294.497 548.34 300.397 545.04 309.407C540.803 320.904 538.613 333.054 538.57 345.307V379.577L515.57 375.577C515.57 375.577 516.57 327.577 512.57 319.577C509.74 313.907 512.42 276.637 514.23 255.367C514.98 246.617 515.57 240.577 515.57 240.577L550.57 249.577L549.38 264.497Z" fill="black"/>
<path id="Vector_34" d="M436.58 479.577L427.93 528.777C426.839 535.346 425.166 541.804 422.93 548.077C417.86 561.937 421.1 581.367 423.56 591.967C424.65 596.647 425.56 599.607 425.56 599.607L399.56 613.607L391.56 607.607V603.607L390.56 514.607C384.56 500.607 386.56 479.607 390.56 471.607C391.697 468.978 392.497 466.216 392.94 463.387C394.94 452.667 395.56 437.607 395.56 437.607C395.56 437.607 411.56 410.607 430.56 428.607C437.56 435.237 440.22 443.907 440.78 452.207C441.76 466.417 436.58 479.577 436.58 479.577Z" fill="#DB8B8B"/>
<path id="Vector_35" opacity="0.1" d="M440.78 452.177C426.91 460.417 402.78 462.747 392.94 463.357C394.94 452.637 395.56 437.577 395.56 437.577C395.56 437.577 411.56 410.577 430.56 428.577C437.56 435.207 440.22 443.877 440.78 452.177Z" fill="black"/>
<path id="Vector_36" d="M474.56 427.577C463.926 433.24 453.877 439.939 444.56 447.577C428.56 460.577 388.56 461.577 388.56 461.577V446.577C389.56 428.577 372.56 408.577 349.56 352.577C334.87 316.817 338.94 296.577 343.8 286.577C346.56 280.927 349.56 278.577 349.56 278.577L474.56 302.577L479.03 315.977L488.56 344.577C488.56 344.577 453.56 346.577 447.56 349.577C441.56 352.577 445.56 379.577 445.56 379.577C439.56 407.577 474.56 427.577 474.56 427.577Z" fill="#ABB1D1"/>
<path id="Vector_37" opacity="0.1" d="M550.56 249.577L549.38 264.497C531.98 269.497 519.56 253.577 519.56 253.577C517.745 254.063 515.962 254.661 514.22 255.367C514.97 246.617 515.56 240.577 515.56 240.577L550.56 249.577Z" fill="black"/>
<path id="Vector_38" opacity="0.1" d="M479.03 315.977C478.56 320.647 478.56 323.577 478.56 323.577C478.56 323.577 455.56 342.577 416.56 313.577C377.56 284.577 342.56 292.577 342.56 292.577C342.56 292.577 342.97 290.257 343.8 286.577C346.56 280.927 349.56 278.577 349.56 278.577L474.56 302.577L479.03 315.977Z" fill="black"/>
<path id="Vector_39" d="M564.04 210.527C561.43 230.877 560.56 256.527 560.56 256.527C537.56 274.527 519.56 251.527 519.56 251.527C497.84 257.357 487.63 276.367 482.82 292.957C480.244 301.93 478.812 311.194 478.56 320.527C478.56 320.527 472.48 325.527 461.28 326.527C450.69 327.417 435.51 324.657 416.56 310.527C377.56 281.527 342.56 289.527 342.56 289.527C342.56 289.527 349.56 249.527 365.56 237.527C381.56 225.527 393.56 210.527 413.56 164.527C433.56 118.527 474.56 129.527 474.56 129.527C474.56 129.527 476.56 120.527 513.56 129.527C522.572 131.889 530.914 136.308 537.93 142.437C557.72 159.077 567.32 184.887 564.04 210.527Z" fill="white"/>
<path id="Vector_40" d="M526.93 152.077C526.88 153.407 526.77 154.887 526.59 156.537C524.59 174.537 522.59 172.537 500.59 176.537C486.91 179.027 479.8 167.597 476.38 158.597C475.142 155.336 474.208 151.969 473.59 148.537L521.59 140.537C521.59 140.537 527.34 138.927 526.93 152.077Z" fill="#DB8B8B"/>
<path id="Vector_41" opacity="0.05" d="M482.82 293.007C480.244 301.98 478.812 311.244 478.56 320.577C478.56 320.577 472.48 325.577 461.28 326.577C460.964 325.94 460.723 325.269 460.56 324.577C458.56 315.577 443.56 299.577 443.56 299.577C433.56 290.577 431.56 274.577 431.56 274.577L415.06 226.077L409.56 221.577C409.56 221.577 432.56 203.577 452.56 218.577C472.56 233.577 466.56 265.577 466.56 265.577L470.56 276.577C474.71 280.077 478.93 286.247 482.82 293.007Z" fill="black"/>
<path id="Vector_42" d="M412.56 220.577L434.56 273.577C434.56 273.577 436.56 289.577 446.56 298.577C446.56 298.577 461.56 314.577 463.56 323.577C465.56 332.577 493.56 356.577 493.56 356.577C493.56 356.577 519.56 380.577 521.56 389.577C521.56 389.577 545.56 396.577 542.56 410.577C542.56 410.577 560.56 392.577 542.56 375.577C524.56 358.577 500.56 323.577 500.56 323.577C500.56 323.577 486.56 286.577 473.56 275.577L469.56 264.577C469.56 264.577 475.56 232.577 455.56 217.577C435.56 202.577 412.56 220.577 412.56 220.577Z" fill="#DB8B8B"/>
<path id="Vector_43" opacity="0.1" d="M425.56 599.577L399.56 613.577L391.56 607.577V603.577C400.544 602.939 409.273 600.305 417.11 595.867C419.51 594.507 421.77 593.167 423.58 591.987C424.63 596.617 425.56 599.577 425.56 599.577Z" fill="black"/>
<path id="Vector_44" opacity="0.1" d="M455.56 178.577L469.56 233.577C469.56 233.577 426.56 240.577 417.56 233.577C408.56 226.577 391.56 224.577 391.56 224.577C391.56 224.577 409.56 172.577 419.56 166.577C429.56 160.577 455.56 178.577 455.56 178.577Z" fill="black"/>
<path id="Vector_45" d="M455.56 176.577L469.56 231.577C469.56 231.577 426.56 238.577 417.56 231.577C408.56 224.577 391.56 222.577 391.56 222.577C391.56 222.577 409.56 170.577 419.56 164.577C429.56 158.577 455.56 176.577 455.56 176.577Z" fill="white"/>
<path id="Vector_46" opacity="0.1" d="M526.93 151.077C524.129 154.943 520.567 158.195 516.463 160.634C512.358 163.072 507.798 164.645 503.063 165.256C498.328 165.866 493.519 165.502 488.93 164.185C484.341 162.868 480.07 160.626 476.38 157.597C475.142 154.336 474.208 150.969 473.59 147.537L521.59 139.537C521.59 139.537 527.34 137.927 526.93 151.077Z" fill="black"/>
<path id="Vector_47" d="M533.56 129.577C533.56 138.859 529.872 147.762 523.309 154.325C516.745 160.889 507.843 164.577 498.56 164.577C489.277 164.577 480.375 160.889 473.811 154.325C467.248 147.762 463.56 138.859 463.56 129.577C463.56 128.997 463.56 128.417 463.56 127.837C463.791 118.554 467.7 109.743 474.426 103.343C481.153 96.9422 490.147 93.476 499.43 93.7067C508.713 93.9375 517.523 97.8462 523.924 104.573C530.325 111.3 533.791 120.294 533.56 129.577V129.577Z" fill="#DB8B8B"/>
<path id="Vector_48" opacity="0.1" d="M533.56 129.577C533.563 132.802 533.119 136.013 532.24 139.117C529.535 139.706 526.713 139.448 524.16 138.377C520.42 136.907 517.21 134.377 513.62 132.557C503.51 127.437 491.48 128.447 480.28 130.137C474.72 130.977 468.41 131.757 464.04 128.217C463.89 128.098 463.746 127.971 463.61 127.837C463.841 118.554 467.75 109.743 474.476 103.343C481.203 96.9422 490.197 93.476 499.48 93.7067C508.763 93.9375 517.573 97.8462 523.974 104.573C530.375 111.3 533.841 120.294 533.61 129.577H533.56Z" fill="black"/>
<path id="Vector_49" d="M438.24 107.927C440.37 114.607 450.6 114.817 455.85 119.737C458.58 122.297 459.85 126.077 462.85 128.357C467.02 131.537 473.04 130.837 478.35 130.077C489.04 128.557 500.52 127.647 510.16 132.257C513.58 133.887 516.65 136.167 520.22 137.497C523.79 138.827 528.22 138.987 531.12 136.627C533.44 134.737 534.29 131.627 536.39 129.547C538.02 127.907 540.29 126.987 542.15 125.547C546.23 122.467 547.99 117.447 549.15 112.647C551.55 102.767 552.24 92.1167 548.15 82.7467C544.06 73.3767 534.22 65.7467 523.48 66.2367C520.19 66.3867 516.98 67.2367 513.7 67.5967C505.15 68.4667 496.7 65.5967 488.12 65.1067C485.631 64.8039 483.107 65.1483 480.79 66.1067C479.043 67.0775 477.537 68.4273 476.38 70.0567C472.452 75.2021 469.762 81.1836 468.52 87.5367C467.52 92.3267 467.47 96.6667 461.6 97.4067C454.93 98.2867 433.73 93.7967 438.24 107.927Z" fill="#472727"/>
<path id="Vector_50" opacity="0.05" d="M370.06 237.077C370.06 237.077 396.06 244.077 404.06 262.077C412.06 280.077 433.7 283.367 433.7 283.367" fill="black"/>
<path id="Vector_51" d="M468.06 633.077H408.06V652.077H468.06V633.077Z" fill="#6C63FF"/>
<path id="Vector_52" opacity="0.1" d="M468.06 633.077H408.06V652.077H468.06V633.077Z" fill="#ECCB20"/>
<path id="Vector_53" d="M417.07 597.817C422.44 594.817 427.15 591.817 427.56 590.577C427.56 590.577 441.11 604.877 453.18 609.317C457.239 610.816 461.124 612.747 464.77 615.077C469.55 618.077 476.37 621.607 482.56 621.607C482.56 621.607 496.56 633.607 469.56 635.607C442.56 637.607 379.56 630.607 379.56 630.607L383.56 605.607C395.247 606.292 406.884 603.587 417.07 597.817Z" fill="#535461"/>
</g>
</g>
<defs>
<linearGradient id="paint0_linear" x1="888.5" y1="164.5" x2="1.86302e-05" y2="728.5" gradientUnits="userSpaceOnUse">
<stop stop-color="#6C6771"/>
<stop offset="1" stop-color="#ECCB20"/>
</linearGradient>
</defs>
</svg>
